<?xml version="1.0" encoding="UTF-8"?> <svg xmlns="http://www.w3.org/2000/svg" width="281" height="122" viewBox="0 0 281 122" fill="none"><path d="M53.7908 8.89614C55.4862 8.7743 59.1407 8.33583 60.3065 8.15063C60.4855 7.76525 61.316 6.0365 61.6442 5.6302C63.011 3.9357 65.6304 3.23151 69.0205 3.64772C71.4731 3.94843 74.1213 4.81356 76.6892 6.13453C77.581 6.59328 78.7617 7.43572 79.6225 8C80.5 7 80.2089 7.14307 83.1161 6.22291C85.2192 5.55688 87.6906 5.27657 90.266 5.3962C91.1604 5.43775 92.0671 5.52766 92.9755 5.66638C96.5 6.20439 99.6414 7.41545 101.821 9.07727C104.058 10.7824 105.197 13.1951 104.716 15.0782C104.712 15.0967 104.703 15.1052 104.691 15.1068C104.028 15.8684 103.351 16.7355 102.839 17.601C102.315 18.4891 102 19.3174 102 20C102 21.0196 102.54 22.4313 103.336 23.8468C104.124 25.2451 105.113 26.5615 105.914 27.3737C106.197 27.6597 106.386 28.0469 106.456 28.4558C106.531 28.9002 106.465 29.3701 106.222 29.7632C105.4 31.0945 104.172 33.6939 104.498 36.9502C104.872 40.6984 106.108 44.173 106.675 45.6121C106.917 46.2279 106.748 46.9215 106.286 47.3705C105.439 48.1941 103.814 49.9906 102.861 52.4232C101.916 54.838 101.629 57.8804 103.441 61.264C104.627 63.48 105.333 67.3206 105.691 71.7201C106.052 76.145 106.066 81.2175 105.824 85.9565C105.582 90.6925 105.082 95.1167 104.407 98.2412C104.072 99.7952 103.685 101.068 103.245 101.899C103.028 102.309 102.769 102.669 102.447 102.882C102.279 102.993 102.085 103.071 101.868 103.083C101.868 103.683 103.1 105.2 104.5 106.8C105.9 108.5 107 110 107 110.2C107 110.7 100.5 110.3 94.5 109.4C91.8 109 87.9 108.8 86 108.9C84.1 109 78.5 109.2 73.5 109.3C68.6 109.5 63.6 110 62.6 110.5C61.4 111 58.3 110.9 54.8 110.1C50.3 109.2 48.1 109.2 45 110.1C41.8 111.1 40.5 111.1 38.6 110C36.7 109 35.4 109 32.9 109.9C28.7 111.3 28.7 111.4 30.1 108.7C31.2 106.7 31.2 106.6 29.7 107.9C26.9 110.1 27.8 108.1 30.7 105.4C32.6 103.6 33.3 102.1 33.2 99.7C33.1 97.9 32.8 88.2 32.6 78C32.5 67.8 31.9 58.3 31.5 56.7C31.1 55.2 31.2 53.4 31.7 52.7C32.8 51.4 32.6 36.5 31.5 33.7C31.1 32.8 31 30.5 31.4 28.7C31.7 27 31.6 24.9 31.1 24.1C30.3 22.8 29.9 22.8 28.3 24.1C26.7 25.4 26.6 25.4 27.9 23.7C29.1 22.2 29 22 26.9 21.9C24.7 21.8 24.7 21.7 26.5 21.2C27.7 20.8 28.6 19.5 28.7 18C28.8 16.6 28.6 16.1 28.4 16.8C28.1 17.4 27.4 17.8 26.9 17.4C25.9 16.8 26.8 12.2 28.3 10.2C28.22 8.75998 29.7333 6.79999 30.5 6C33.3861 3.8492 36.9206 3.28351 40.7927 4.5C43.3057 5.28906 45.6959 6.85062 47.8045 8.22844C48.3685 8.59641 48.9077 8.94634 49.4276 9.26948C50.8807 9.10815 52.3779 8.99801 53.7908 8.89614Z" fill="white"></path><path d="M72.5 10.7428C70.6715 6.49971 65.9978 7.24247 58.2527 8.47359C57.0869 8.65879 55.4862 8.7743 53.7908 8.89614C52.3779 8.998 50.8807 9.10815 49.4276 9.26947C48.9077 8.94634 48.3685 8.5964 47.8045 8.22843C45.6959 6.85062 43.3057 5.28906 40.7927 4.5C36.9206 3.2835 33.7722 3.71824 30.8861 5.86904C27.2868 8.55108 27.669 11.3433 32.7912 14.7983C32.7222 14.9888 40.1067 15.3237 40.0562 15.5298C40.3442 15.5298 42.6117 14.2003 45.4167 15.8496C48.1503 17.4569 45.9922 15.3641 50.2912 15.7496C51.3992 15.8491 51.7056 15.9953 52.7912 15.9953C55.9171 15.9953 50.9903 16.7819 53.5 15.9953C56.9694 14.9084 54.5234 17.9579 55 15.9953C55.1147 15.5245 70.0185 16.3862 70 15.9953C70.9491 14.4308 73.6923 13.5101 72.5 10.7428ZM33.363 14.1325C29.3087 11.1205 29.1844 8.68023 32.1306 6.4846C33.6534 5.34998 35.1266 4.8012 36.8099 4.8012C37.8016 4.8012 38.8663 4.99176 40.0562 5.36558C42.3212 6.07715 44.6103 7.57242 46.6298 8.89224C46.9291 9.08768 47.2236 9.28019 47.5116 9.46589C46.3121 9.6467 45.3092 9.86115 44.4715 10.1151C42.2683 10.7823 40.9123 11.6474 40.3442 12.7518C40.2985 12.7542 40.2584 12.7601 40.2135 12.763C39.4953 12.8069 38.8358 12.8858 38.2333 13.0008C38.2148 13.0042 38.1963 13.0081 38.1779 13.0116C36.9014 13.2621 35.8824 13.6768 35.1065 14.2666C35.0921 14.2773 35.0784 14.289 35.0648 14.2997C34.8979 14.4293 34.7422 14.5668 34.5978 14.7135C34.5753 14.7364 34.5505 14.7578 34.5288 14.7807C34.39 14.9279 34.4083 14.1559 34.2912 14.3197C34.2775 14.3392 33.3774 14.1125 33.363 14.1325ZM65.7843 17.5529C65.7795 17.5437 65.7731 17.5359 65.7683 17.5271C65.7169 17.4257 65.6552 17.3297 65.5894 17.2357C65.5597 17.1928 65.5292 17.1499 65.4963 17.1084C65.4217 17.0139 65.3422 16.9218 65.2524 16.8345C65.2275 16.8102 65.1986 16.7873 65.1721 16.7634C64.8504 16.4705 64.4364 16.2156 63.9285 15.9953C63.9012 15.9836 63.8748 15.9714 63.8475 15.9597C63.7616 15.9236 63.6878 15.8837 63.5963 15.8496C63.5025 15.8145 63.3949 15.7847 63.2963 15.7516L63.2906 15.7496C62.7491 15.5679 62.1312 15.4129 61.4276 15.2779C61.3209 15.2569 61.2174 15.235 61.1074 15.215C60.9959 15.195 60.8772 15.176 60.7608 15.157C60.5025 15.1136 60.2361 15.0717 59.9617 15.0322C59.932 15.0278 59.9023 15.0239 59.8726 15.0195C58.2567 14.791 56.3736 14.6199 54.2634 14.4308C53.9649 14.404 53.6448 14.367 53.3062 14.3216C53.3022 14.3211 53.2966 14.3202 53.2926 14.3197C52.28 14.1837 51.1086 13.9756 49.885 13.7582C47.555 13.3444 44.9874 12.8902 42.6237 12.7625C42.5178 12.7557 42.4103 12.7484 42.3076 12.743C42.8315 12.0461 43.8409 11.4856 45.4167 11.0079C47.697 10.3173 51.0355 10.0766 53.981 9.86456C55.7325 9.73882 57.3869 9.61941 58.6603 9.41715C67.097 8.07588 69.5875 7.83122 70.9491 10.9904C71.9151 13.2348 69.9028 15.7526 65.7843 17.5529Z" fill="black"></path><path d="M57.9969 12.4628C57.8889 12.1541 57.4518 11.9663 57.0188 12.0435C56.5865 12.1207 56.3245 12.4334 56.4317 12.7422L57.2381 15.0461C57.33 15.3076 57.6582 15.4821 58.0195 15.4821C58.0848 15.4821 58.1501 15.477 58.2162 15.4649C58.6485 15.3877 58.9105 15.0749 58.8033 14.7662L57.9969 12.4628Z" fill="black"></path><path d="M37.0558 9.7228C37.2098 9.7228 37.3663 9.69112 37.5034 9.62546L40.2661 8.30414C40.6362 8.12731 40.7354 7.76904 40.4878 7.50524C40.2394 7.24086 39.7387 7.17059 39.3693 7.34684L36.6067 8.66816C36.2365 8.84499 36.1373 9.20326 36.3849 9.46706C36.5405 9.63295 36.7954 9.7228 37.0558 9.7228Z" fill="black"></path><path d="M36.6405 13.8699C36.9082 13.8699 37.1703 13.7749 37.3235 13.6015C37.5614 13.3325 37.4485 12.9772 37.0719 12.8072L34.2601 11.5401C33.8851 11.3713 33.3851 11.4508 33.1481 11.7198C32.9102 11.9888 33.0231 12.3441 33.3997 12.5141L36.2115 13.7812C36.3438 13.8411 36.493 13.8699 36.6405 13.8699Z" fill="black"></path><path d="M73.0012 9.19628L75.8149 9.27788C76.1918 9.28898 76.4235 9.03785 76.3321 8.71813C76.2746 8.5171 76.1041 8.33652 75.8912 8.227C75.7653 8.16224 75.6241 8.12236 75.4845 8.11839L72.6708 8.03678C72.2939 8.02569 72.0622 8.27682 72.1536 8.59654C72.2455 8.91706 72.6256 9.18587 73.0012 9.19628Z" fill="black"></path><path d="M71.6154 12.164C71.3261 12.0152 70.9897 12.016 70.8018 12.1837C70.5767 12.3847 70.6496 12.7502 70.9655 12.9996L73.3217 14.8618C73.6372 15.1122 74.076 15.1504 74.3013 14.949C74.5263 14.748 74.4535 14.3825 74.1375 14.133L71.7814 12.2708C71.7294 12.2292 71.6728 12.1935 71.6154 12.164Z" fill="black"></path><path d="M56.6702 11.8789L59.3535 11.6095C59.713 11.5735 59.8867 11.286 59.7412 10.9677C59.6635 10.7979 59.5115 10.6542 59.3323 10.562C59.1741 10.4806 58.9953 10.4393 58.8273 10.4564L56.1439 10.7259C55.7845 10.7618 55.6107 11.0493 55.7562 11.3677C55.9017 11.686 56.311 11.9144 56.6702 11.8789Z" fill="black"></path><path d="M98.6973 13.5067C98.7742 13.7639 99.126 13.9345 99.4832 13.8877C99.8405 13.8409 100.067 13.5945 99.991 13.3373L99.4177 11.4179C99.3523 11.2001 99.0899 11.0445 98.7938 11.0308C98.7403 11.0283 98.6865 11.03 98.6319 11.0374C98.2746 11.0842 98.0479 11.3307 98.124 11.5878L98.6973 13.5067Z" fill="black"></path><path d="M88.4076 9.25104L90.7226 8.27308C91.0328 8.14222 91.1277 7.85231 90.9348 7.62663C90.8136 7.48472 90.6081 7.40136 90.3946 7.39144C90.2683 7.38558 90.1389 7.40559 90.024 7.4542L87.709 8.43215C87.3988 8.56301 87.3039 8.85293 87.4968 9.07861C87.6903 9.30479 88.0988 9.38196 88.4076 9.25104Z" fill="black"></path><path d="M88.3837 12.1752C88.0935 12.1617 87.8207 12.2872 87.7304 12.4931C87.6222 12.7398 87.817 13.0096 88.1661 13.0949L90.7704 13.7326C91.1195 13.8188 91.49 13.687 91.5982 13.4398C91.7064 13.1931 91.5116 12.9233 91.1624 12.838L88.5581 12.2003C88.5005 12.1858 88.4412 12.1778 88.3837 12.1752Z" fill="black"></path><path d="M56.5217 94.2511C56.5985 94.5083 56.9503 94.6789 57.3076 94.6321C57.6648 94.5853 57.8916 94.3389 57.8154 94.0817L57.2421 92.1624C57.1767 91.9445 56.9143 91.7889 56.6182 91.7752C56.5646 91.7727 56.5109 91.7745 56.4562 91.7819C56.099 91.8287 55.8722 92.0751 55.9484 92.3322L56.5217 94.2511Z" fill="black"></path><path d="M46.232 89.9955L48.547 89.0175C48.8571 88.8867 48.9521 88.5967 48.7592 88.3711C48.6379 88.2292 48.4324 88.1458 48.2189 88.1359C48.0927 88.13 47.9632 88.15 47.8484 88.1986L45.5333 89.1766C45.2232 89.3074 45.1282 89.5974 45.3211 89.823C45.5147 90.0492 45.9231 90.1264 46.232 89.9955Z" fill="black"></path><path d="M46.2081 92.9196C45.9179 92.9061 45.6451 93.0316 45.5547 93.2375C45.4465 93.4842 45.6414 93.754 45.9905 93.8393L48.5948 94.477C48.9439 94.5632 49.3144 94.4314 49.4226 94.1842C49.5307 93.9375 49.3359 93.6677 48.9868 93.5824L46.3825 92.9447C46.3249 92.9302 46.2656 92.9223 46.2081 92.9196Z" fill="black"></path><path d="M58.2279 72.004C58.4685 72.1231 58.8331 71.9821 59.0424 71.6888C59.2517 71.3955 59.2261 71.0617 58.986 70.942L57.191 70.0529C56.987 69.9522 56.6943 70.0381 56.4824 70.2453C56.4441 70.2828 56.4087 70.3233 56.3768 70.3684C56.1675 70.6616 56.1932 70.9955 56.4333 71.1151L58.2279 72.004Z" fill="black"></path><path d="M48.0993 76.6301L48.9622 74.2698C49.0779 73.9537 48.9306 73.6866 48.634 73.6738C48.4475 73.6658 48.2464 73.7592 48.0936 73.9087C48.0032 73.997 47.9296 74.1054 47.8869 74.2226L47.024 76.5829C46.9083 76.899 47.0556 77.1661 47.3522 77.1789C47.6496 77.1915 47.9846 76.9453 48.0993 76.6301Z" fill="black"></path><path d="M50.2222 78.6412C50.0145 78.8443 49.9203 79.1294 50.0094 79.3359C50.1161 79.5832 50.4463 79.6246 50.7467 79.4274L52.9888 77.9569C53.2899 77.7604 53.446 77.3994 53.3389 77.1518C53.2322 76.9044 52.902 76.863 52.6016 77.0603L50.3595 78.5307C50.3096 78.563 50.2634 78.6009 50.2222 78.6412Z" fill="black"></path><path d="M86.9686 78.3879C86.7559 78.5517 86.7225 78.9412 86.894 79.2581C87.0655 79.5749 87.3767 79.6985 87.5896 79.5354L89.1768 78.3133C89.3569 78.1743 89.4083 77.8736 89.3152 77.5922C89.2983 77.5413 89.2775 77.4917 89.251 77.4433C89.0795 77.1265 88.7682 77.0029 88.5554 77.166L86.9686 78.3879Z" fill="black"></path><path d="M87.2612 67.2567L89.0027 69.0686C89.2358 69.3114 89.5405 69.2963 89.6822 69.0355C89.7714 68.8715 89.7757 68.6498 89.7086 68.4468C89.6689 68.3269 89.6039 68.2131 89.5174 68.1233L87.7759 66.3114C87.5428 66.0686 87.2381 66.0836 87.0963 66.3445C86.9544 66.6061 87.0284 67.0152 87.2612 67.2567Z" fill="black"></path><path d="M84.5221 68.2806C84.4308 68.0048 84.2161 67.7949 83.9914 67.7842C83.7224 67.7714 83.5401 68.0499 83.5854 68.4064L83.9217 71.0665C83.966 71.4233 84.2217 71.7221 84.4912 71.7347C84.7603 71.7475 84.9425 71.469 84.8973 71.1125L84.561 68.4524C84.5539 68.3934 84.5402 68.3352 84.5221 68.2806Z" fill="black"></path><path d="M85.3883 92.2736C85.2664 92.5127 85.4031 92.879 85.6939 93.0917C85.9847 93.3045 86.3188 93.2828 86.4413 93.0441L87.3515 91.2597C87.4546 91.057 87.3721 90.7633 87.1674 90.5489C87.1304 90.5101 87.0903 90.4743 87.0456 90.4419C86.7548 90.2291 86.4207 90.2509 86.2982 90.4895L85.3883 92.2736Z" fill="black"></path><path d="M80.8817 82.0913L83.2317 82.9819C83.5465 83.1013 83.8153 82.9571 83.8315 82.6607C83.8418 82.4743 83.7507 82.2721 83.603 82.1176C83.5157 82.0262 83.4083 81.9513 83.2916 81.9071L80.9416 81.0165C80.6269 80.8971 80.3581 81.0413 80.3418 81.3377C80.3257 81.635 80.5679 81.9728 80.8817 82.0913Z" fill="black"></path><path d="M78.8458 84.1903C78.6452 83.9803 78.3612 83.8827 78.1537 83.9693C77.9051 84.0731 77.8598 84.4028 78.0535 84.7055L79.4974 86.9647C79.6905 87.2681 80.0495 87.4285 80.2984 87.3243C80.547 87.2205 80.5923 86.8909 80.3986 86.5881L78.9546 84.3289C78.923 84.2786 78.8856 84.232 78.8458 84.1903Z" fill="black"></path><path d="M28.3 10.2C26.8 12.2 25.9 16.8 26.9 17.4C27.4 17.8 28.1 17.4 28.4 16.8C28.6 16.1 28.8 16.6 28.7 18C28.6 19.5 27.7 20.8 26.5 21.2C24.7 21.7 24.7 21.8 26.9 21.9C29 22 29.1 22.2 27.9 23.7C26.6 25.4 26.7 25.4 28.3 24.1C29.9 22.8 30.3 22.8 31.1 24.1C31.6 24.9 31.7 27 31.4 28.7C31 30.5 31.1 32.8 31.5 33.7C32.6 36.5 32.8 51.4 31.7 52.7C31.2 53.4 31.1 55.2 31.5 56.7C31.9 58.3 32.5 67.8 32.6 78C32.8 88.2 33.1 97.9 33.2 99.7C33.3 102.1 32.6 103.6 30.7 105.4C27.8 108.1 26.9 110.1 29.7 107.9C31.2 106.6 31.2 106.7 30.1 108.7C28.7 111.4 28.7 111.3 32.9 109.9C35.4 109 36.7 109 38.6 110C40.5 111.1 41.8 111.1 45 110.1C48.1 109.2 50.3 109.2 54.8 110.1C58.3 110.9 61.4 111 62.6 110.5C63.6 110 68.6 109.5 73.5 109.3C78.5 109.2 84.1 109 86 108.9C87.9 108.8 91.8 109 94.5 109.4C100.5 110.3 107 110.7 107 110.2C107 110 105.9 108.5 104.5 106.8C103.1 105.2 102 103.3 102 102.7C102 102 100.9 101.4 99.5 101.4C98.1 101.3 97 101.6 97 102.2C97 102.7 96.5 102.8 96 102.5C94.6 101.6 90.1 100.8 86.8 100.7H84.1L87.9 96.4C95.1 88.7 97.5 81.2 96.4 69.5C95.7 62.2 94.7 59 93.4 60.3C93 60.6 93.2 61.5 93.7 62.2C94.3 62.9 95 66.5 95.4 70.1C96.3 79.3 93.3 88.9 87.9 94.3C84.4 97.8 83.7 98.2 80.5 97.6C78.5 97.2 76 96.1 74.9 95.2C73.8 94.3 72.5 93.4 72 93.4C71.4 93.3 70.7 93.2 70.3 93.1C70 93.1 70.7 91.9 72 90.5C74.6 87.7 74.1 85.9 71.3 88.1C69.6 89.4 69.6 89.4 71.3 87.4C72.2 86.3 72.7 85 72.3 84.6C71.8 84.2 72.2 84 73 84.2C74 84.4 74.5 83.7 74.6 82C74.7 80.6 75.2 78.5 75.9 77.3C76.7 75.7 76.7 74.9 75.9 74.4C75.1 74 75.2 73.5 76.1 72.9C77.3 72.2 77.3 72 76.1 72C75.1 72 75.6 71 77.4 69.1C79 67.5 80 65.7 79.6 65.2C79.3 64.7 79.9 63.1 81 61.7C84.6 57.2 83.1 57.7 77.8 62.9C74.9 65.7 71.9 68 71.3 68C70.5 68 70 66.7 70 64.7C69.9 61.7 69.9 61.6 68.5 63.4C67.6 64.5 67 64.8 67 64.1C67 63.2 66.5 63.3 65.4 64.4C64.6 65.3 64.1 67 64.3 68.2C64.7 70.4 64.7 70.4 64.9 68C65 66.2 65.3 65.9 65.9 66.9C66.9 68.4 66.2 72.2 65 71.5C64.6 71.3 64.3 73.1 64.2 75.6C64.2 78.2 63.7 80.7 63.1 81.3C62.5 81.9 62 83.5 62 84.9C62 92.7 55.9 102 52.2 100.1C51.2 99.6 48.9 99 46.9 98.6C44.8 98.2 42.6 97.3 41.9 96.4C40.7 94.9 39.7 90.4 39.8 86.2C39.8 84.4 39.5 84.2 38.4 85.1C35.9 87.2 36.8 84.1 39.5 81.4C40.9 80 41.7 78.3 41.3 77.4C40.8 76 42.2 72.2 44.4 69.1C45 68.4 45.5 67.2 45.6 66.5C45.7 65.8 46.1 64.3 46.4 63.2C46.8 62 46.6 60.9 45.8 60.4C45.2 60 44.4 60.2 44.2 60.8C43.4 63.3 42.1 61.8 42.6 59C43 57.2 42.7 55.4 42 54.5C41.3 53.6 41 52.7 41.4 52.3C41.7 52 42 52.3 42 53C42 53.9 42.5 53.7 43.5 52.4C45.2 50.1 45.4 48.6 43.8 49.6C43.1 50.1 43 49.9 43.5 49C43.9 48.3 43.8 47.5 43.2 47.1C42.6 46.8 41.9 45.1 41.6 43.5C41 40.9 41.1 40.8 41.9 42.7C43.4 46 43.6 45.6 43.2 40.9C42.8 36.9 42.9 36.7 45.4 37.2C46.8 37.5 48 37.3 48 36.9C48 36.4 47.6 36 47.1 36C46.6 36 46 34.6 45.6 32.9C45.3 31.2 44.6 30.1 44 30.5C43.4 30.8 43.3 30.5 43.6 29.6C43.9 28.7 44.6 28.2 45 28.5C45.4 28.8 46 28.1 46.3 27C46.6 25.7 46.3 25 45.3 25C44.5 25 44.1 24.6 44.4 24.1C44.7 23.6 44.1 23 43 22.7C41.9 22.4 41 22.7 41 23.3C40.9 24 40.5 23.9 39.7 23C39 22.2 38 21.4 37.4 21.3C36.8 21.2 34.9 19.7 33.1 18C30.4 15.6 29.9 14.4 30.2 12C30.7 8.79999 29.9 8.19999 28.3 10.2Z" fill="black"></path><path fill-rule="evenodd" clip-rule="evenodd" d="M29.2262 14.0532C28.6387 13.6861 28.1811 13.2232 28.0181 12.6332L28.9819 12.3668C29.0501 12.6134 29.2698 12.9012 29.7562 13.2052C30.2373 13.5059 30.9226 13.7862 31.809 14.0394C33.5793 14.545 36.0517 14.9149 39.0454 15.168C45.0261 15.6735 52.99 15.705 61.355 15.4704C78.0827 15.0011 96.3455 13.4696 103.404 12.5674C104.854 12.3821 105.64 14.0209 104.716 15.0782C104.045 15.8467 103.357 16.7247 102.839 17.601C102.315 18.4891 102 19.3174 102 20C102 21.0196 102.54 22.4313 103.336 23.8468C104.124 25.2451 105.113 26.5615 105.914 27.3737C106.504 27.9705 106.689 29.0084 106.222 29.7632C105.4 31.0945 104.172 33.6939 104.498 36.9502C104.872 40.6984 106.108 44.173 106.675 45.6121C106.917 46.2279 106.748 46.9215 106.286 47.3705C105.439 48.1941 103.814 49.9906 102.861 52.4232C101.916 54.838 101.629 57.8804 103.441 61.264C104.627 63.48 105.333 67.3206 105.691 71.7201C106.052 76.145 106.066 81.2175 105.824 85.9565C105.582 90.6925 105.082 95.1167 104.407 98.2412C104.072 99.7952 103.685 101.068 103.245 101.899C103.028 102.309 102.769 102.669 102.447 102.882C102.279 102.993 102.085 103.071 101.868 103.083C101.65 103.096 101.444 103.04 101.259 102.938L101.741 102.062C101.785 102.086 101.805 102.085 101.811 102.085C101.819 102.084 101.845 102.081 101.895 102.048C102.008 101.973 102.172 101.789 102.361 101.431C102.735 100.726 103.099 99.5642 103.43 98.0302C104.089 94.9789 104.584 90.6138 104.825 85.9054C105.066 81.1999 105.051 76.1728 104.695 71.8013C104.336 67.4043 103.638 63.7517 102.559 61.736C100.586 58.0511 100.897 54.6969 101.93 52.0585C102.956 49.4381 104.693 47.5248 105.589 46.6535C105.775 46.4732 105.833 46.2028 105.744 45.9785C105.165 44.5059 103.891 40.9321 103.502 37.0498C103.147 33.4911 104.488 30.6687 105.372 29.2378C105.57 28.9159 105.503 28.38 105.203 28.0762C104.328 27.1906 103.288 25.7996 102.465 24.3374C101.652 22.8924 101 21.2906 101 20C101 19.0476 101.424 18.0308 101.979 17.0923C102.54 16.1421 103.272 15.2123 103.963 14.4205C104.32 14.0122 104.011 13.498 103.531 13.5593C96.4342 14.4664 78.138 15.9999 61.3831 16.47C53.0069 16.705 44.9986 16.6747 38.9612 16.1644C35.946 15.9096 33.3978 15.5331 31.5344 15.0009C30.6038 14.7352 29.8189 14.4237 29.2262 14.0532Z" fill="black"></path><path fill-rule="evenodd" clip-rule="evenodd" d="M98.4537 37.1682C99.7719 35.1059 102.132 32.1607 106.146 28.1464L106.854 28.8536C102.868 32.8393 100.561 35.7274 99.2963 37.7068C98.6632 38.6973 98.2991 39.4475 98.113 39.9841C98.02 40.2524 97.9754 40.4564 97.9603 40.6031C97.9527 40.6758 97.9531 40.7293 97.9563 40.7662C97.9593 40.8004 97.9644 40.8147 97.9644 40.8147C97.9644 40.8147 97.9643 40.8145 97.9642 40.8143L97.0358 41.1857C96.9524 40.9774 96.941 40.7384 96.9655 40.5004C96.9908 40.2559 97.0581 39.9742 97.1682 39.6565C97.3884 39.0213 97.7951 38.1986 98.4537 37.1682ZM98 57.5C98 55.4628 99.7166 50.4626 106.2 45.6L106.8 46.4C100.483 51.1374 99 55.8705 99 57.5H98ZM100.008 77.0894C99.6525 75.1337 99.8127 69.6611 103.048 62.7871L103.952 63.2129C100.787 69.9389 100.681 75.1996 100.992 76.9106L100.008 77.0894ZM98.7515 91.3915C99.9852 90.192 102.017 88.5875 105.235 86.576L105.765 87.424C102.583 89.4125 100.615 90.9746 99.4485 92.1085C98.865 92.6758 98.4906 93.1279 98.266 93.4649C98.1538 93.6333 98.0836 93.7658 98.043 93.8637C98.007 93.9503 98.0011 93.9929 98.0002 93.9999C98 94.0012 98 94.0012 98 94H97C97 93.6767 97.174 93.3001 97.434 92.9101C97.7094 92.4971 98.135 91.9908 98.7515 91.3915Z" fill="black"></path><path fill-rule="evenodd" clip-rule="evenodd" d="M64.8868 56.3533C66.9305 58.5358 68.1297 61.7531 67.9888 66.0329L65.9899 65.9671C66.1171 62.1037 65.037 59.4397 63.4269 57.7203C61.8094 55.9928 59.5596 55.1143 57.1582 55.0104C52.2819 54.7995 47.1704 57.7637 45.9708 62.6206L44.0292 62.141C45.5112 56.1402 51.6626 52.7708 57.2446 53.0123C60.0724 53.1346 62.8507 54.1788 64.8868 56.3533Z" fill="black"></path><path fill-rule="evenodd" clip-rule="evenodd" d="M85.5776 57.5573C84.4447 57.7471 83.3356 58.4394 82.4383 60.0744C82.3055 60.3165 82.0015 60.405 81.7594 60.2721C81.5174 60.1393 81.4288 59.8353 81.5617 59.5933C82.5844 57.7297 83.9353 56.8185 85.4124 56.571C86.8587 56.3287 88.347 56.7363 89.65 57.3392C90.9596 57.9453 92.1343 58.7731 92.9762 59.4425C93.3986 59.7784 93.7408 60.0772 93.9781 60.2928C94.0968 60.4007 94.1895 60.4879 94.2531 60.5488C94.2849 60.5792 94.3094 60.603 94.3263 60.6195L94.3458 60.6388L94.3512 60.6441L94.3528 60.6457L94.3533 60.6462C94.3535 60.6464 94.3536 60.6465 94.0235 60.9766L94.3536 60.6465C94.5488 60.8418 94.5488 61.1584 94.3535 61.3536C94.1582 61.5488 93.8417 61.5488 93.6465 61.3536C93.6465 61.3536 93.6465 61.3536 93.6465 61.3536C93.6464 61.3535 93.6464 61.3535 93.6464 61.3535L93.6458 61.3529L93.6423 61.3495L93.6267 61.3341C93.6124 61.3201 93.5907 61.299 93.5618 61.2713C93.5039 61.216 93.4175 61.1346 93.3056 61.033C93.0817 60.8295 92.7564 60.5453 92.3538 60.2252C91.5457 59.5826 90.4405 58.8069 89.23 58.2468C88.013 57.6836 86.7413 57.3623 85.5776 57.5573Z" fill="black"></path><path fill-rule="evenodd" clip-rule="evenodd" d="M54.2894 16.9561C52.3267 15.7578 51.3614 14.2073 51.6737 11.6979C52.0694 8.52092 55.6713 6.63123 60.8912 6.81525C61.0703 6.42988 61.316 6.0365 61.6442 5.6302C63.011 3.9357 65.6304 3.23151 69.0205 3.64772C71.4731 3.94843 74.1213 4.81356 76.6892 6.13453C77.581 6.59328 78.4628 7.10703 79.3237 7.67131C82.619 9.83117 85.2295 12.4849 86.6883 15.1562L85.3499 15.2306C84.0035 12.8398 81.636 10.4603 78.651 8.50415C75.5673 6.48443 72.208 5.16594 69.1934 4.79585C66.2652 4.43622 64.0219 5.02013 62.877 6.4388C62.5756 6.81245 62.3602 7.15176 62.2121 7.46555L62.1234 7.70449C61.8005 8.57197 61.9931 9.348 62.7956 10.2639L62.8162 10.287C63.8592 11.466 65.9063 12.8775 69.1611 15.0102C69.6131 15.3066 70.0971 15.6599 70.6049 16.0497L68.9287 16.1429C68.777 16.0358 68.6298 15.9353 68.4874 15.8419C66.8479 14.7675 65.3859 13.8065 64.172 12.9028C64.1609 12.8944 64.1498 12.8861 64.1386 12.8779C64.1275 12.8696 64.1163 12.8613 64.1052 12.8529C63.8994 12.6988 63.7014 12.5458 63.5107 12.3947C63.4974 12.3843 63.4841 12.3738 63.4707 12.3634C63.3975 12.3061 63.3239 12.2484 63.2548 12.1922C63.2012 12.1484 63.1504 12.1049 63.0996 12.0614C63.0742 12.0397 63.0488 12.018 63.023 11.9962C62.5121 11.5684 62.0816 11.1576 61.727 10.7532L61.7234 10.7489C61.6981 10.7201 61.6715 10.6913 61.6449 10.6624C61.6034 10.6174 61.5619 10.5723 61.5255 10.5275C61.4908 10.4847 61.4623 10.4426 61.4337 10.4005C61.4145 10.3721 61.3952 10.3436 61.374 10.3149C61.3657 10.3035 61.3576 10.2921 61.3495 10.2807C61.3415 10.2692 61.3334 10.2578 61.3251 10.2463C61.0173 9.81891 60.8039 9.39773 60.6851 8.97882C60.6814 8.9657 60.6772 8.95258 60.6731 8.93946C60.6664 8.91831 60.6597 8.89719 60.6546 8.87618C60.6241 8.75393 60.6046 8.63138 60.5903 8.50852C60.5839 8.4546 60.5801 8.40028 60.5771 8.34631C60.5698 8.22764 60.5667 8.10879 60.5749 7.98916C60.5751 7.98426 60.5749 7.97942 60.5747 7.97453C60.5745 7.96894 60.5742 7.96329 60.5746 7.95743C56.2967 7.95616 53.3925 9.53793 53.0708 12.1142C52.7737 14.5021 53.6116 15.6716 56.3867 16.8396L54.2894 16.9561Z" fill="black"></path><path fill-rule="evenodd" clip-rule="evenodd" d="M77.6906 11.8119C75.0981 12.8881 73.2605 14.3568 72.3954 15.9503L73.9018 15.8666C74.6761 14.7388 76.0316 13.6907 77.8574 12.8569C77.8593 12.8617 77.8616 12.8662 77.8638 12.8707C77.8658 12.8746 77.8678 12.8784 77.8695 12.8825C77.9072 12.9827 77.9538 13.0781 78.0037 13.1717C78.0263 13.2144 78.0495 13.2571 78.0747 13.2985C78.1319 13.393 78.1932 13.4852 78.2633 13.5732C78.2753 13.5884 78.2886 13.603 78.3018 13.6177L78.3018 13.6177L78.3019 13.6178C78.3101 13.6269 78.3183 13.636 78.3262 13.6452C78.5781 13.9413 78.9077 14.2041 79.3163 14.4369L79.345 14.4535C79.3571 14.4605 79.3692 14.4676 79.3814 14.4745C79.4093 14.4899 79.4355 14.5059 79.4617 14.5218L79.4617 14.5218C79.5005 14.5454 79.5393 14.569 79.5834 14.5908C79.6295 14.6137 79.68 14.6349 79.7304 14.6561L79.7304 14.6561L79.7305 14.6561C79.7627 14.6696 79.795 14.6832 79.8262 14.6972L79.8307 14.6993C80.2687 14.8962 80.7708 15.0699 81.3444 15.2277C81.3734 15.2358 81.4021 15.244 81.4308 15.2522C81.4882 15.2687 81.5456 15.2851 81.6053 15.3008C81.6823 15.3208 81.7635 15.3403 81.8442 15.3597C81.8589 15.3632 81.8736 15.3667 81.8883 15.3703C81.9466 15.3846 82.0054 15.3989 82.0648 15.4131L86.1045 15.1886C83.4305 14.7639 81.6506 14.4087 80.5421 13.9166L80.5168 13.9055C79.5253 13.4596 79.0809 12.9009 79.0211 12.0767L79.0045 11.8497C79.0083 11.54 79.0573 11.1845 79.1634 10.7693C79.5665 9.19241 81.1714 7.88573 83.6826 7.09102C86.2678 6.27278 89.4849 6.09667 92.7384 6.59227C95.9932 7.08889 98.8804 8.19729 100.87 9.7135C102.802 11.1864 103.644 12.8665 103.241 14.4433C103.174 14.7043 103.094 14.9457 103.002 15.1709C102.922 15.3636 102.831 15.5415 102.732 15.7092C102.721 15.7285 102.71 15.7479 102.698 15.7667C102.597 15.9295 102.486 16.0805 102.363 16.2196C102.354 16.2296 102.346 16.2392 102.337 16.2488C102.332 16.2536 102.328 16.2584 102.323 16.2632C102.195 16.4034 102.057 16.5328 101.904 16.6483C101.902 16.6501 101.899 16.6517 101.897 16.6534C101.894 16.655 101.891 16.6567 101.889 16.6585C101.843 16.6932 101.795 16.7269 101.747 16.7595L101.303 18.0914C101.96 17.8842 102.519 17.5931 102.984 17.2147C102.99 17.2104 102.995 17.2059 103 17.2014V16.5L104 15H104.438C104.476 14.8837 104.511 14.7647 104.543 14.6415C105.024 12.7584 104.058 10.7824 101.821 9.07727C99.6414 7.41545 96.5 6.20439 92.9755 5.66638C92.0671 5.52766 91.1604 5.43775 90.266 5.3962C87.6906 5.27657 85.2192 5.55688 83.1161 6.22291C80.2089 7.14307 78.3432 8.68701 77.8623 10.5702C77.7465 11.0219 77.693 11.4325 77.6906 11.8119ZM104.761 26.3985L104 26.5L103.558 25.8373C103.509 25.8603 103.459 25.8825 103.41 25.9039L103.895 26.8041C104.186 26.6901 104.475 26.5549 104.761 26.3985Z" fill="black"></path><path d="M59.4775 28H58.54V20.8906H59.4775V28Z" fill="black"></path><path d="M61.1963 28V20.8906H63.2031C63.8216 20.8906 64.3685 21.0273 64.8438 21.3008C65.319 21.5742 65.6852 21.9632 65.9424 22.4678C66.2028 22.9723 66.3346 23.5518 66.3379 24.2061V24.6602C66.3379 25.3307 66.2077 25.9183 65.9473 26.4229C65.6901 26.9274 65.3206 27.3148 64.8389 27.585C64.3604 27.8551 63.8021 27.9935 63.1641 28H61.1963ZM62.1338 21.6621V27.2334H63.1201C63.8428 27.2334 64.4043 27.0088 64.8047 26.5596C65.2083 26.1104 65.4102 25.4707 65.4102 24.6406V24.2256C65.4102 23.4183 65.2197 22.7917 64.8389 22.3457C64.4613 21.8965 63.9242 21.6686 63.2275 21.6621H62.1338Z" fill="black"></path><path d="M71.5771 26.1445H68.5986L67.9297 28H66.9629L69.6777 20.8906H70.498L73.2178 28H72.2559L71.5771 26.1445ZM68.8818 25.373H71.2988L70.0879 22.0479L68.8818 25.373Z" fill="black"></path><path d="M79.6387 28H78.6963V24.7139H75.1123V28H74.1748V20.8906H75.1123V23.9473H78.6963V20.8906H79.6387V28Z" fill="black"></path><path d="M86.7725 24.6748C86.7725 25.3714 86.6553 25.9801 86.4209 26.501C86.1865 27.0186 85.8545 27.4141 85.4248 27.6875C84.9951 27.9609 84.4938 28.0977 83.9209 28.0977C83.361 28.0977 82.8646 27.9609 82.4316 27.6875C81.9987 27.4108 81.6618 27.0186 81.4209 26.5107C81.1833 25.9997 81.0612 25.4089 81.0547 24.7383V24.2256C81.0547 23.542 81.1735 22.9382 81.4111 22.4141C81.6488 21.89 81.9841 21.4896 82.417 21.2129C82.8532 20.9329 83.3512 20.793 83.9111 20.793C84.4808 20.793 84.9821 20.9313 85.415 21.208C85.8512 21.4814 86.1865 21.8802 86.4209 22.4043C86.6553 22.9251 86.7725 23.5322 86.7725 24.2256V24.6748ZM85.8398 24.2158C85.8398 23.3727 85.6706 22.7266 85.332 22.2773C84.9935 21.8249 84.5199 21.5986 83.9111 21.5986C83.3187 21.5986 82.8516 21.8249 82.5098 22.2773C82.1712 22.7266 81.9971 23.3516 81.9873 24.1523V24.6748C81.9873 25.4919 82.1582 26.1348 82.5 26.6035C82.8451 27.069 83.3187 27.3018 83.9209 27.3018C84.5264 27.3018 84.9951 27.082 85.3271 26.6426C85.6592 26.1999 85.8301 25.5667 85.8398 24.7432V24.2158Z" fill="black"></path><path d="M49.8438 37.2168V40H48.9062V32.8906H51.5283C52.3063 32.8906 52.915 33.0892 53.3545 33.4863C53.7972 33.8835 54.0186 34.4092 54.0186 35.0635C54.0186 35.7536 53.8021 36.2858 53.3691 36.6602C52.9395 37.0312 52.3226 37.2168 51.5186 37.2168H49.8438ZM49.8438 36.4502H51.5283C52.0296 36.4502 52.4137 36.333 52.6807 36.0986C52.9476 35.861 53.0811 35.5192 53.0811 35.0732C53.0811 34.6501 52.9476 34.3115 52.6807 34.0576C52.4137 33.8037 52.0475 33.6719 51.582 33.6621H49.8438V36.4502Z" fill="black"></path><path d="M60.6836 36.6748C60.6836 37.3714 60.5664 37.9801 60.332 38.501C60.0977 39.0186 59.7656 39.4141 59.3359 39.6875C58.9062 39.9609 58.4049 40.0977 57.832 40.0977C57.2721 40.0977 56.7757 39.9609 56.3428 39.6875C55.9098 39.4108 55.5729 39.0186 55.332 38.5107C55.0944 37.9997 54.9723 37.4089 54.9658 36.7383V36.2256C54.9658 35.542 55.0846 34.9382 55.3223 34.4141C55.5599 33.89 55.8952 33.4896 56.3281 33.2129C56.7643 32.9329 57.2624 32.793 57.8223 32.793C58.3919 32.793 58.8932 32.9313 59.3262 33.208C59.7624 33.4814 60.0977 33.8802 60.332 34.4043C60.5664 34.9251 60.6836 35.5322 60.6836 36.2256V36.6748ZM59.751 36.2158C59.751 35.3727 59.5817 34.7266 59.2432 34.2773C58.9046 33.8249 58.431 33.5986 57.8223 33.5986C57.2298 33.5986 56.7627 33.8249 56.4209 34.2773C56.0824 34.7266 55.9082 35.3516 55.8984 36.1523V36.6748C55.8984 37.4919 56.0693 38.1348 56.4111 38.6035C56.7562 39.069 57.2298 39.3018 57.832 39.3018C58.4375 39.3018 58.9062 39.082 59.2383 38.6426C59.5703 38.1999 59.7412 37.5667 59.751 36.7432V36.2158Z" fill="black"></path><path d="M66.8652 33.6621H64.5801V40H63.6475V33.6621H61.3672V32.8906H66.8652V33.6621Z" fill="black"></path><path d="M71.4551 38.1445H68.4766L67.8076 40H66.8408L69.5557 32.8906H70.376L73.0957 40H72.1338L71.4551 38.1445ZM68.7598 37.373H71.1768L69.9658 34.0479L68.7598 37.373Z" fill="black"></path><path d="M78.3301 33.6621H76.0449V40H75.1123V33.6621H72.832V32.8906H78.3301V33.6621Z" fill="black"></path><path d="M84.7168 36.6748C84.7168 37.3714 84.5996 37.9801 84.3652 38.501C84.1309 39.0186 83.7988 39.4141 83.3691 39.6875C82.9395 39.9609 82.4382 40.0977 81.8652 40.0977C81.3053 40.0977 80.8089 39.9609 80.376 39.6875C79.943 39.4108 79.6061 39.0186 79.3652 38.5107C79.1276 37.9997 79.0055 37.4089 78.999 36.7383V36.2256C78.999 35.542 79.1178 34.9382 79.3555 34.4141C79.5931 33.89 79.9284 33.4896 80.3613 33.2129C80.7975 32.9329 81.2956 32.793 81.8555 32.793C82.4251 32.793 82.9264 32.9313 83.3594 33.208C83.7956 33.4814 84.1309 33.8802 84.3652 34.4043C84.5996 34.9251 84.7168 35.5322 84.7168 36.2256V36.6748ZM83.7842 36.2158C83.7842 35.3727 83.6149 34.7266 83.2764 34.2773C82.9378 33.8249 82.4642 33.5986 81.8555 33.5986C81.263 33.5986 80.7959 33.8249 80.4541 34.2773C80.1156 34.7266 79.9414 35.3516 79.9316 36.1523V36.6748C79.9316 37.4919 80.1025 38.1348 80.4443 38.6035C80.7894 39.069 81.263 39.3018 81.8652 39.3018C82.4707 39.3018 82.9395 39.082 83.2715 38.6426C83.6035 38.1999 83.7744 37.5667 83.7842 36.7432V36.2158Z" fill="black"></path><path d="M90.1416 36.7139H87.0605V39.2334H90.6396V40H86.123V32.8906H90.5908V33.6621H87.0605V35.9473H90.1416V36.7139Z" fill="black"></path><path d="M93.9014 36.8311C93.0973 36.5999 92.5114 36.3167 92.1436 35.9814C91.779 35.6429 91.5967 35.2262 91.5967 34.7314C91.5967 34.1715 91.8197 33.7093 92.2656 33.3447C92.7148 32.9769 93.2975 32.793 94.0137 32.793C94.502 32.793 94.9365 32.8874 95.3174 33.0762C95.7015 33.265 95.9977 33.5254 96.2061 33.8574C96.4176 34.1895 96.5234 34.5524 96.5234 34.9463H95.5811C95.5811 34.5166 95.4443 34.1797 95.1709 33.9355C94.8975 33.6882 94.5117 33.5645 94.0137 33.5645C93.5514 33.5645 93.1901 33.667 92.9297 33.8721C92.6725 34.0739 92.5439 34.3555 92.5439 34.7168C92.5439 35.0065 92.666 35.2523 92.9102 35.4541C93.1576 35.6527 93.5758 35.835 94.165 36.001C94.7575 36.167 95.2197 36.3509 95.5518 36.5527C95.887 36.7513 96.1344 36.984 96.2939 37.251C96.4567 37.5179 96.5381 37.832 96.5381 38.1934C96.5381 38.7695 96.3135 39.2318 95.8643 39.5801C95.415 39.9251 94.8145 40.0977 94.0625 40.0977C93.5742 40.0977 93.1185 40.0049 92.6953 39.8193C92.2721 39.6305 91.945 39.3734 91.7139 39.0479C91.486 38.7223 91.3721 38.3529 91.3721 37.9395H92.3145C92.3145 38.3691 92.4723 38.7093 92.7881 38.96C93.1071 39.2074 93.5319 39.3311 94.0625 39.3311C94.5573 39.3311 94.9365 39.2301 95.2002 39.0283C95.4639 38.8265 95.5957 38.5514 95.5957 38.2031C95.5957 37.8548 95.4736 37.5863 95.2295 37.3975C94.9854 37.2054 94.5426 37.0166 93.9014 36.8311Z" fill="black"></path><path d="M192.448 70.1924H188.962L187.6 78H183.308L187.014 56.6719L194.074 56.6865C196.438 56.6865 198.254 57.2432 199.523 58.3564C200.803 59.4697 201.369 61.0176 201.223 63C201.018 65.9297 199.455 67.9658 196.535 69.1084L199.538 77.7656V78H194.968L192.448 70.1924ZM189.577 66.6328L192.771 66.6621C193.903 66.6426 194.836 66.3398 195.568 65.7539C196.311 65.1582 196.755 64.3525 196.901 63.3369C197.038 62.3896 196.887 61.6475 196.447 61.1104C196.008 60.5732 195.31 60.2852 194.353 60.2461L190.69 60.2314L189.577 66.6328ZM216.105 68.7568H207.932L206.936 74.4697H216.545L215.93 78H202.028L205.734 56.6719H219.606L218.977 60.2314H209.411L208.518 65.3145H216.721L216.105 68.7568ZM218.552 78L222.258 56.6719L228.381 56.6865C229.816 56.7158 231.105 57.043 232.248 57.668C233.4 58.2832 234.333 59.1719 235.046 60.334C235.759 61.4961 236.188 62.8047 236.335 64.2598C236.413 65.1094 236.403 65.9785 236.306 66.8672L236.203 67.6436C235.773 70.7686 234.543 73.2783 232.512 75.1729C230.49 77.0576 228.034 78 225.144 78H218.552ZM225.935 60.2314L223.459 74.4697L225.246 74.4844C227.219 74.4844 228.801 73.7617 229.992 72.3164C231.193 70.8711 231.882 68.6885 232.058 65.7686L232.087 65.2998C232.116 63.6885 231.809 62.4531 231.164 61.5938C230.52 60.7344 229.558 60.2852 228.278 60.2461L225.935 60.2314Z" fill="black"></path><path d="M118.564 115.07H113.604L112.139 118H108.984L116.582 103.781H119.229L121.934 118H119.014L118.564 115.07ZM114.775 112.697H118.203L117.402 107.404L114.775 112.697ZM131.191 114.201C131.328 113.426 130.947 112.834 130.049 112.424L128.164 111.672C125.977 110.695 124.938 109.351 125.049 107.639C125.094 106.844 125.355 106.141 125.83 105.529C126.305 104.917 126.973 104.439 127.832 104.094C128.691 103.742 129.619 103.573 130.615 103.586C131.989 103.612 133.099 104.022 133.945 104.816C134.792 105.604 135.208 106.662 135.195 107.99H132.344C132.376 107.346 132.233 106.844 131.914 106.486C131.602 106.128 131.113 105.943 130.449 105.93C129.798 105.917 129.232 106.066 128.75 106.379C128.268 106.685 127.982 107.108 127.891 107.648C127.767 108.358 128.242 108.921 129.316 109.338L130.605 109.826L131.348 110.168C133.268 111.118 134.167 112.453 134.043 114.172C133.984 115.012 133.714 115.738 133.232 116.35C132.757 116.955 132.106 117.421 131.279 117.746C130.459 118.072 129.554 118.225 128.564 118.205C127.555 118.186 126.657 117.974 125.869 117.57C125.081 117.167 124.482 116.597 124.072 115.861C123.688 115.178 123.509 114.396 123.535 113.518L126.396 113.527C126.305 115.07 127.064 115.855 128.672 115.881C129.368 115.881 129.941 115.728 130.391 115.422C130.84 115.116 131.107 114.709 131.191 114.201ZM146.65 118H143.789L144.844 111.906H139.326L138.262 118H135.4L137.871 103.781H140.732L139.727 109.543H145.254L146.25 103.781H149.111L146.65 118ZM161.367 106.154H157.148L155.098 118H152.236L154.287 106.154H150.117L150.537 103.781H161.787L161.367 106.154ZM166.465 118.195C165.521 118.176 164.688 117.954 163.965 117.531C163.249 117.102 162.679 116.486 162.256 115.686C161.839 114.878 161.598 113.954 161.533 112.912C161.462 111.844 161.576 110.705 161.875 109.494C162.174 108.283 162.656 107.219 163.32 106.301C163.984 105.383 164.762 104.696 165.654 104.24C166.553 103.785 167.523 103.566 168.564 103.586C169.521 103.605 170.358 103.833 171.074 104.27C171.79 104.699 172.354 105.321 172.764 106.135C173.174 106.942 173.408 107.86 173.467 108.889C173.532 110.035 173.408 111.213 173.096 112.424C172.783 113.635 172.298 114.683 171.641 115.568C170.983 116.454 170.212 117.118 169.326 117.561C168.447 118.003 167.493 118.215 166.465 118.195ZM170.518 110.5L170.596 109.572C170.661 108.413 170.505 107.535 170.127 106.936C169.756 106.337 169.189 106.024 168.428 105.998C167.236 105.959 166.289 106.486 165.586 107.58C164.889 108.674 164.495 110.204 164.404 112.17C164.339 113.322 164.492 114.211 164.863 114.836C165.234 115.454 165.811 115.777 166.592 115.803C167.614 115.848 168.46 115.451 169.131 114.611C169.801 113.765 170.241 112.57 170.449 111.027L170.518 110.5ZM185.488 118H182.715L178.76 108.518L177.109 118H174.248L176.719 103.781H179.482L183.447 113.283L185.098 103.781H187.949L185.488 118ZM188.154 121.564L186.699 120.773L187.412 119.631C187.829 118.934 188.096 118.28 188.213 117.668L188.574 115.598H190.898L190.615 117.395C190.348 119.081 189.528 120.471 188.154 121.564ZM200.889 118H198.027L200.488 103.781H203.35L200.889 118ZM203.604 118L206.074 103.781L210.156 103.791C211.113 103.811 211.973 104.029 212.734 104.445C213.503 104.855 214.124 105.448 214.6 106.223C215.075 106.997 215.361 107.87 215.459 108.84C215.511 109.406 215.505 109.986 215.439 110.578L215.371 111.096C215.085 113.179 214.264 114.852 212.91 116.115C211.562 117.372 209.925 118 207.998 118H203.604ZM208.525 106.154L206.875 115.646L208.066 115.656C209.382 115.656 210.436 115.174 211.23 114.211C212.031 113.247 212.49 111.792 212.607 109.846L212.627 109.533C212.646 108.459 212.441 107.635 212.012 107.062C211.582 106.49 210.941 106.19 210.088 106.164L208.525 106.154ZM224.463 115.07H219.502L218.037 118H214.883L222.48 103.781H225.127L227.832 118H224.912L224.463 115.07ZM220.674 112.697H224.102L223.301 107.404L220.674 112.697ZM240.518 118H237.656L238.711 111.906H233.193L232.129 118H229.268L231.738 103.781H234.6L233.594 109.543H239.121L240.117 103.781H242.979L240.518 118ZM248.789 118.195C247.845 118.176 247.012 117.954 246.289 117.531C245.573 117.102 245.003 116.486 244.58 115.686C244.163 114.878 243.923 113.954 243.857 112.912C243.786 111.844 243.9 110.705 244.199 109.494C244.499 108.283 244.98 107.219 245.645 106.301C246.309 105.383 247.087 104.696 247.979 104.24C248.877 103.785 249.847 103.566 250.889 103.586C251.846 103.605 252.682 103.833 253.398 104.27C254.115 104.699 254.678 105.321 255.088 106.135C255.498 106.942 255.732 107.86 255.791 108.889C255.856 110.035 255.732 111.213 255.42 112.424C255.107 113.635 254.622 114.683 253.965 115.568C253.307 116.454 252.536 117.118 251.65 117.561C250.771 118.003 249.818 118.215 248.789 118.195ZM252.842 110.5L252.92 109.572C252.985 108.413 252.829 107.535 252.451 106.936C252.08 106.337 251.514 106.024 250.752 105.998C249.561 105.959 248.613 106.486 247.91 107.58C247.214 108.674 246.82 110.204 246.729 112.17C246.663 113.322 246.816 114.211 247.188 114.836C247.559 115.454 248.135 115.777 248.916 115.803C249.938 115.848 250.785 115.451 251.455 114.611C252.126 113.765 252.565 112.57 252.773 111.027L252.842 110.5Z" fill="black"></path><path d="M195.847 96.6055H188.405L186.208 101H181.477L192.873 79.6719H196.843L200.9 101H196.521L195.847 96.6055ZM190.163 93.0459H195.305L194.104 85.1064L190.163 93.0459ZM219.914 101H215.754L209.821 86.7764L207.346 101H203.054L206.76 79.6719H210.905L216.853 93.9248L219.328 79.6719H223.605L219.914 101ZM240.861 98.3047C240.1 99.2715 238.981 100.019 237.507 100.546C236.042 101.063 234.387 101.308 232.541 101.278C231.086 101.269 229.807 100.951 228.703 100.326C227.6 99.6914 226.73 98.7832 226.096 97.6016C225.461 96.4199 225.1 95.0723 225.012 93.5586C224.914 92.1523 225.061 90.502 225.451 88.6074C225.852 86.7031 226.53 85.0381 227.487 83.6123C228.454 82.1768 229.611 81.1074 230.959 80.4043C232.307 79.6914 233.801 79.3496 235.441 79.3789C237.668 79.418 239.411 80.0479 240.671 81.2686C241.931 82.4795 242.648 84.2178 242.824 86.4834L238.693 86.4688C238.586 85.2773 238.269 84.3984 237.741 83.832C237.214 83.2656 236.428 82.9629 235.383 82.9238C233.576 82.8652 232.15 83.6611 231.105 85.3115C230.07 86.9521 229.479 89.335 229.333 92.46C229.235 94.1299 229.489 95.4238 230.095 96.3418C230.71 97.2598 231.643 97.7285 232.893 97.748C234.348 97.7871 235.588 97.4404 236.613 96.708L237.331 93.0312H233.435L234.006 89.7939H242.15L240.861 98.3047ZM263.2 79.6719L260.798 93.7344C260.466 96.0879 259.489 97.9482 257.868 99.3154C256.247 100.683 254.235 101.347 251.833 101.308C250.329 101.278 249.021 100.951 247.907 100.326C246.804 99.6914 245.988 98.8027 245.461 97.6602C244.934 96.5078 244.753 95.2041 244.919 93.749L247.307 79.6719H251.599L249.211 93.7637C249.143 94.3105 249.138 94.8232 249.196 95.3018C249.392 96.8838 250.334 97.7041 252.023 97.7627C253.234 97.8018 254.226 97.4697 254.997 96.7666C255.769 96.0635 256.267 95.0576 256.491 93.749L258.894 79.6719H263.2ZM274.787 95.3018C274.992 94.1396 274.421 93.251 273.073 92.6357L270.246 91.5078C266.965 90.043 265.407 88.0264 265.573 85.458C265.642 84.2666 266.032 83.2119 266.745 82.2939C267.458 81.376 268.459 80.6582 269.748 80.1406C271.037 79.6133 272.429 79.3594 273.923 79.3789C275.983 79.418 277.648 80.0332 278.918 81.2246C280.188 82.4062 280.812 83.9932 280.793 85.9854H276.516C276.564 85.0186 276.35 84.2666 275.871 83.7295C275.402 83.1924 274.67 82.9141 273.674 82.8945C272.697 82.875 271.848 83.0996 271.125 83.5684C270.402 84.0273 269.973 84.6621 269.836 85.4727C269.65 86.5371 270.363 87.3818 271.975 88.0068L273.908 88.7393L275.021 89.252C277.902 90.6777 279.25 92.6797 279.064 95.2578C278.977 96.5176 278.571 97.6064 277.849 98.5244C277.136 99.4326 276.159 100.131 274.919 100.619C273.688 101.107 272.331 101.337 270.847 101.308C269.333 101.278 267.985 100.961 266.804 100.355C265.622 99.75 264.724 98.8955 264.108 97.792C263.532 96.7666 263.264 95.5947 263.303 94.2764L267.595 94.291C267.458 96.6055 268.596 97.7822 271.008 97.8213C272.053 97.8213 272.912 97.5918 273.586 97.1328C274.26 96.6738 274.66 96.0635 274.787 95.3018Z" fill="black"></path><path d="M121.082 87.6035C121.492 85.2793 120.35 83.502 117.654 82.2715L112 80.0156C105.438 77.0859 102.322 73.0527 102.654 67.916C102.791 65.5332 103.572 63.4238 104.998 61.5879C106.424 59.752 108.426 58.3164 111.004 57.2812C113.582 56.2266 116.365 55.7188 119.354 55.7578C123.475 55.8359 126.805 57.0664 129.344 59.4492C131.883 61.8125 133.133 64.9863 133.094 68.9707H124.539C124.637 67.0371 124.207 65.5332 123.25 64.459C122.312 63.3848 120.848 62.8281 118.855 62.7891C116.902 62.75 115.203 63.1992 113.758 64.1367C112.312 65.0547 111.453 66.3242 111.18 67.9453C110.809 70.0742 112.234 71.7637 115.457 73.0137L119.324 74.4785L121.551 75.5039C127.312 78.3555 130.008 82.3594 129.637 87.5156C129.461 90.0352 128.65 92.2129 127.205 94.0488C125.779 95.8652 123.826 97.2617 121.346 98.2383C118.885 99.2148 116.17 99.6738 113.201 99.6152C110.174 99.5566 107.479 98.9219 105.115 97.7109C102.752 96.5 100.955 94.791 99.7246 92.584C98.5723 90.5332 98.0352 88.1895 98.1133 85.5527L106.697 85.582C106.424 90.2109 108.699 92.5645 113.523 92.6426C115.613 92.6426 117.332 92.1836 118.68 91.2656C120.027 90.3477 120.828 89.127 121.082 87.6035ZM143.523 91.9395H161.629L160.398 99H133.709L141.121 56.3438H149.705L143.523 91.9395ZM174.666 99H166.082L173.465 56.3438H182.049L174.666 99Z" fill="black"></path><path d="M10.4297 91.9395H28.5352L27.3047 99H0.615234L8.02734 56.3438H16.6113L10.4297 91.9395Z" fill="black"></path></svg> 